<svg xmlns="http://www.w3.org/2000/svg" xmlns:xlink="http://www.w3.org/1999/xlink" id="Layer_1" x="0px" y="0px" viewBox="0 0 965.5 350" style="enable-background:new 0 0 965.5 350;" xml:space="preserve"><style type="text/css">	.st0{fill:#FF7200;}	.st1{fill:#FBC700;}	.st2{fill:#FFFFFF;}</style><path class="st0" d="M45.4,283.5v-6.4H0v62.9h6.9v-28.9h32.9v-6.3H6.9v-21.4H45.4z"></path><path class="st0" d="M126.3,295.6c-1.6-3.9-3.9-7.4-6.9-10.4c-3-3-6.6-5.3-10.6-6.8c-4.3-1.6-8.9-2.5-13.5-2.4 c-4.6-0.1-9.2,0.8-13.5,2.4c-8,3-14.3,9.3-17.5,17.2c-3.2,8.4-3.2,17.7,0,26.1c1.6,3.9,3.9,7.4,6.9,10.3c3,3,6.6,5.3,10.6,6.8 c4.3,1.7,8.9,2.5,13.5,2.5c4.6,0.1,9.2-0.8,13.5-2.5c4-1.5,7.6-3.9,10.6-6.8c3-2.9,5.4-6.4,6.9-10.3 C129.6,313.3,129.6,304,126.3,295.6z M120,319.2c-2.5,6.4-7.5,11.4-13.9,13.8c-6.9,2.6-14.6,2.6-21.5,0c-3.2-1.2-6-3.1-8.4-5.5 c-2.4-2.4-4.2-5.2-5.4-8.4c-2.6-6.8-2.6-14.3,0-21.1c1.2-3.1,3.1-6,5.4-8.4c2.4-2.4,5.3-4.3,8.4-5.5c6.9-2.6,14.6-2.6,21.5,0 c3.2,1.3,6,3.1,8.4,5.5c2.4,2.4,4.2,5.2,5.4,8.4C122.5,304.9,122.5,312.4,120,319.2L120,319.2z"></path><path class="st0" d="M211.4,295.6c-1.6-3.9-3.9-7.4-6.9-10.4c-3.1-3-6.7-5.3-10.6-6.8c-8.7-3.2-18.3-3.2-27,0 c-8,3.1-14.3,9.3-17.5,17.2c-3.2,8.4-3.2,17.7,0,26.1c1.6,3.9,4,7.4,7,10.3c3,3,6.6,5.3,10.6,6.8c8.7,3.3,18.3,3.3,27,0 c4-1.5,7.6-3.9,10.6-6.8c3-2.9,5.4-6.4,6.9-10.3C214.7,313.3,214.7,304,211.4,295.6L211.4,295.6z M205,319.2 c-2.5,6.4-7.5,11.4-13.9,13.8c-6.9,2.6-14.6,2.6-21.6,0c-3.1-1.2-6-3.1-8.4-5.5c-2.4-2.4-4.2-5.2-5.5-8.4c-2.5-6.8-2.5-14.3,0-21.1 c1.2-3.1,3.1-6,5.5-8.4c2.4-2.4,5.2-4.3,8.4-5.5c7-2.6,14.6-2.6,21.6,0c3.1,1.3,6,3.1,8.4,5.5c2.4,2.4,4.2,5.2,5.4,8.4 C207.6,304.9,207.6,312.4,205,319.2L205,319.2z"></path><path class="st0" d="M288.8,295.8c-1.4-3.8-3.5-7.2-6.4-10c-3-2.9-6.5-5.1-10.4-6.4c-4.6-1.6-9.5-2.3-14.4-2.3h-22.6v62.9h22.5 c4.9,0.1,9.8-0.7,14.4-2.3c3.9-1.4,7.5-3.5,10.4-6.4c2.8-2.8,5-6.2,6.4-9.9C291.7,313.2,291.7,304.2,288.8,295.8L288.8,295.8z  M282.4,318.9c-2.1,6.2-7,11-13.2,13.1c-3.8,1.2-7.7,1.8-11.6,1.8H242v-50.2h15.6c4-0.1,7.9,0.5,11.6,1.8c6.2,2,11.1,6.8,13.2,13 C284.6,305,284.6,312.2,282.4,318.9L282.4,318.9z"></path><path class="st0" d="M395.6,283.5v-6.4h-46.2v62.9h46.2v-6.4h-39.3v-22.4H390V305h-33.7v-21.5H395.6z"></path><path class="st0" d="M469.5,334.5c3.8-2.9,6.9-6.7,9-11.1c2.2-4.6,3.3-9.7,3.2-14.8c0-4.5-0.8-8.9-2.5-13.1 c-1.6-3.9-3.9-7.4-6.9-10.4c-3.1-3-6.7-5.3-10.6-6.8c-8.7-3.2-18.3-3.2-27,0c-3.9,1.5-7.5,3.9-10.6,6.8c-3,3-5.4,6.5-6.9,10.4 c-3.3,8.4-3.3,17.7,0,26.1c1.6,3.9,3.9,7.4,6.9,10.3c3,3,6.6,5.3,10.6,6.8c4.3,1.7,8.9,2.5,13.5,2.5c5.6,0.1,11.2-1.1,16.2-3.6 L474,350h8L469.5,334.5z M465.4,329.3l-9.1-11.5h-8.1l11.9,14.6v0.2c-7.2,3.1-15.3,3.2-22.6,0.4c-3.1-1.2-6-3.1-8.4-5.5 c-2.4-2.4-4.2-5.2-5.4-8.4c-2.6-6.8-2.6-14.3,0-21.1c1.2-3.1,3.1-6,5.4-8.4c2.4-2.4,5.3-4.3,8.4-5.5c7-2.6,14.6-2.6,21.5,0 c3.1,1.3,6,3.1,8.4,5.5c2.4,2.4,4.2,5.2,5.4,8.4c1.3,3.4,1.9,6.9,1.9,10.5c0.1,4.1-0.8,8.1-2.5,11.8 C470.7,323.9,468.3,326.9,465.4,329.3z"></path><path class="st0" d="M547.3,277.2v38.2c0,6-1.6,10.8-4.9,14.3s-8.1,5.3-14.5,5.3s-11.2-1.7-14.5-5.2s-4.9-8.3-4.9-14.4v-38.2h-7 v38.2c0,3.7,0.5,7.3,1.8,10.8c1.1,3.1,2.8,5.9,5.1,8.2c2.4,2.3,5.2,4.1,8.3,5.2c3.6,1.3,7.5,1.9,11.3,1.8c3.8,0.1,7.6-0.5,11.1-1.8 c3.1-1.1,5.8-2.9,8.2-5.2c2.2-2.3,4-5.1,5-8.2c1.2-3.5,1.8-7.1,1.8-10.8v-38.2H547.3z"></path><path class="st0" d="M577.2,277.2v62.9h6.9v-62.9H577.2z"></path><path class="st0" d="M656.6,289.2c-0.8-2.4-2.2-4.6-4-6.4c-1.9-1.9-4.3-3.3-6.8-4.2c-3.2-1.1-6.5-1.6-9.8-1.5h-27.2v62.9h6.9v-22.8 H636c3.3,0.1,6.7-0.5,9.8-1.5c2.5-0.9,4.9-2.4,6.8-4.2c1.8-1.8,3.2-3.9,4-6.3C658.4,300,658.4,294.4,656.6,289.2L656.6,289.2z  M650.2,302.6c-0.5,1.6-1.4,3.1-2.6,4.4c-1.3,1.3-2.9,2.3-4.6,2.9c-2.2,0.7-4.5,1.1-6.9,1h-20.4v-27.4h20.4c2.3,0,4.7,0.3,6.9,1.1 c1.7,0.6,3.3,1.6,4.6,2.9c1.2,1.2,2.1,2.7,2.5,4.3c0.5,1.7,0.8,3.6,0.8,5.4C651,299,650.7,300.9,650.2,302.6z"></path><path class="st0" d="M754.2,288.6c-1-2.6-2.5-5-4.5-7c-1.9-1.9-4.2-3.3-6.7-4.2c-2.7-0.9-5.5-1.4-8.3-1.4c-4-0.1-8,0.9-11.4,3 c-3.2,2.1-5.7,5.1-7.1,8.7H716c-1.4-3.6-3.9-6.6-7.1-8.7c-3.4-2-7.3-3-11.3-3c-2.9,0-5.7,0.4-8.4,1.4c-2.5,0.9-4.8,2.3-6.6,4.2 c-1.9,2-3.4,4.4-4.4,7c-1.1,3.1-1.7,6.4-1.6,9.8v41.8h6.9v-41.8c0-2.4,0.3-4.7,1.1-7c0.7-1.9,1.7-3.6,3.1-5c1.3-1.3,2.9-2.3,4.6-3 c1.9-0.7,3.8-1,5.8-1c3.9-0.1,7.7,1.4,10.5,4.1c2.8,2.8,4.1,6.7,4.1,11.9v41.8h6.9v-41.8c0-5.2,1.4-9.2,4.2-11.9 c2.8-2.8,6.6-4.3,10.5-4.1c3.9-0.1,7.7,1.3,10.5,4c2.8,2.7,4.2,6.7,4.2,12V340h6.9v-41.7C756,295,755.4,291.7,754.2,288.6z"></path><path class="st0" d="M825,283.5v-6.4h-46.1v62.9H825v-6.4h-39.2v-22.4h33.7V305h-33.7v-21.5H825z"></path><path class="st0" d="M897.1,291.1c-1.1-3.1-2.8-5.8-5.1-8.1c-2.4-2.3-5.2-4.1-8.3-5.2c-3.6-1.3-7.4-1.9-11.3-1.8 c-3.9-0.1-7.7,0.5-11.3,1.8c-3.1,1.1-5.9,2.9-8.3,5.2c-2.3,2.3-4,5.1-5.1,8.2c-1.2,3.4-1.8,7.1-1.7,10.7v38.2h6.9v-38.2 c0-6.1,1.7-10.9,5-14.4s8.1-5.2,14.6-5.2s11.2,1.7,14.5,5.2s4.9,8.3,4.9,14.4v38.2h7v-38.2C898.9,298.2,898.3,294.6,897.1,291.1z"></path><path class="st0" d="M915.9,277.2v6.4h21.4v56.6h6.9v-56.6h21.4v-6.4H915.9z"></path><path class="st0" d="M346.3,36.9c-3.9,0.6-7.6,2.5-10.4,5.3c-2.9,2.9-5.3,6.3-7,10c-1.7,3.7-2.8,7.6-3.5,11.7 c-0.4,2.1-0.5,4.3-0.5,6.5c0,2.2,0.2,4.3,0.5,6.5c1.5,8.2,4.6,15.9,9.2,22.8c4.3,6.7,9.1,12.3,13.3,17.5s7.9,10,10.5,15 c2.7,5,4.5,10.5,5.3,16.2c0.8,6.1,0.5,12.4-0.9,18.4c-0.7,3.3-1.6,6.6-2.7,9.9c-1.1,3.4-2.4,6.8-3.6,10.3c3.2-2,6.1-4.3,8.8-6.9 c1.4-1.3,2.7-2.7,3.9-4.1c0.6-0.7,1.2-1.5,1.8-2.3s1.2-1.5,1.7-2.4c4.6-6.8,7.5-14.6,8.5-22.7c0.8-8.5-0.4-17.1-3.6-25 c-3.1-8-7.9-14.7-12.6-20.5s-9.5-10.7-13.4-15.6c-3.8-4.5-7-9.6-9.5-15c-0.6-1.3-1-2.6-1.5-4c-0.4-1.3-0.7-2.7-1-4.1 c-0.5-3.1-0.7-6.2-0.6-9.3C339.8,48.8,341.1,42.4,346.3,36.9z"></path><path class="st1" d="M300.2,108.4c-0.1,0.4-1.4,1-1.7,1.3c-1.5,1.2-2.9,2.6-4.2,4c-4.3,4.7-7.6,10.2-9.7,16.3 c-5.8,17-2.3,39.4,11.7,51.5c11.2,9.6,27.3,11.7,40.8,5.8c12-5.1,19.9-17,19.8-30.1c0-31-39.6-43-38.5-83.2c0,0-21.4,18.1,1,52.1 c13,19.7,10.5,29.9,4.4,32.6C310.8,164.5,291.3,135.4,300.2,108.4z"></path><polygon class="st2" points="0,228.5 164.4,228.5 164.4,205.9 24.7,205.9 24.7,126.1 144.6,126.1 144.6,103.4 24.7,103.4 24.7,27  164.4,27 164.4,4.4 0,4.4 "></polygon><path class="st2" d="M415.1,35.3c-10.1-9.8-22.5-17.4-37.2-22.8c-14.7-5.4-31.8-8.1-51.2-8.1h-89.6v224h89.6c19.4,0,36.5-2.7,51.2-8 c14.7-5.3,27.1-12.9,37.2-22.8c10.1-9.9,17.9-22,22.8-35.3c5.1-13.7,7.7-29,7.7-45.9c0-16.7-2.6-31.9-7.7-45.7 C433,57.4,425.2,45.2,415.1,35.3z M415.1,153.1c-3.7,10.6-9.6,20.3-17.5,28.3c-7.8,7.8-17.6,13.9-29.5,18.1s-25.7,6.3-41.5,6.3 h-66.3L260.7,27h66c15.8,0,29.6,2.1,41.5,6.3c11.9,4.2,21.7,10.3,29.5,18.1c7.8,8,13.8,17.7,17.5,28.3c4,11.8,6,24.2,5.8,36.6 C421.1,128.9,419.1,141.3,415.1,153.1z"></path><path class="st2" d="M594.6,138.4h106.9v0.7c-2.1,10.5-6,20.5-11.5,29.6c-5.2,8.7-12,16.3-20,22.4c-8.3,6.3-17.6,11.1-27.6,14.2 c-10.9,3.4-22.3,5.1-33.8,5c-13.1,0.1-26.1-2.2-38.4-7c-11.2-4.4-21.4-11.1-30-19.6c-8.4-8.5-15-18.6-19.3-29.8 c-4.7-12-7-24.7-6.9-37.5c-0.1-12.8,2.2-25.5,6.9-37.5c4.3-11.2,10.9-21.3,19.3-29.8c8.6-8.5,18.8-15.1,30-19.5 c12.2-4.8,25.2-7.1,38.4-7c20.1,0,37.5,4.7,52.2,14.2c14.4,9.2,25.9,22.3,33,37.9H721c-3.8-11.1-9.4-21.5-16.6-30.7 c-7.1-9.1-15.6-17.1-25.2-23.6c-9.9-6.7-20.9-11.8-32.4-15.1c-12.4-3.6-25.3-5.4-38.2-5.3C591,0,575,2.9,560.5,8.7 c-14,5.5-26.9,13.8-37.7,24.3c-10.7,10.5-19.1,23.1-24.6,37c-5.9,14.8-8.9,30.5-8.8,46.4c-0.2,16,2.8,31.8,8.8,46.6 c5.6,13.8,14,26.4,24.6,36.8c10.8,10.5,23.6,18.8,37.7,24.3c14.5,5.8,30.5,8.7,48.1,8.7c15.6,0.1,31.1-2.5,45.7-7.9 c13.5-4.9,25.9-12.3,36.6-21.9c10.4-9.4,18.9-20.7,25-33.4c6.4-13.3,10.3-27.6,11.5-42.3v-11.6H594.6V138.4z"></path><polygon class="st2" points="965.5,27 965.5,4.4 801.1,4.4 801.1,228.5 965.5,228.5 965.5,205.9 825.8,205.9 825.8,126.1  945.7,126.1 945.7,103.4 825.8,103.4 825.8,27 "></polygon></svg>